<svg width="1440" height="572" viewBox="0 0 1440 572" fill="none" xmlns="http://www.w3.org/2000/svg">
<g opacity="0.1" clip-path="url(#clip0)">
<path d="M176.178 338.139C176.178 335.914 177.982 334.11 180.207 334.11C182.431 334.11 184.235 335.914 184.235 338.139C184.235 340.363 182.431 342.167 180.207 342.167C178.007 342.167 176.178 340.363 176.178 338.139Z" fill="url(#paint0_linear)"/>
<path d="M180.899 246.82H179.564V335.791H180.899V246.82Z" fill="url(#paint1_linear)"/>
<path d="M-6.55829 228.581C-6.55829 226.357 -4.75415 224.552 -2.52988 224.552C-0.305605 224.552 1.49852 226.357 1.49852 228.581C1.49852 230.805 -0.305605 232.609 -2.52988 232.609C-4.75415 232.609 -6.55829 230.805 -6.55829 228.581Z" fill="url(#paint2_linear)"/>
<path d="M43.5126 133.901C43.5126 131.677 45.3167 129.873 47.541 129.873C49.7653 129.873 51.5694 131.677 51.5694 133.901C51.5694 136.125 49.7653 137.929 47.541 137.929C45.3167 137.929 43.5126 136.125 43.5126 133.901Z" fill="url(#paint3_linear)"/>
<path d="M48.2329 42.5822H46.8984V131.553H48.2329V42.5822Z" fill="url(#paint4_linear)"/>
<path d="M83.7472 154.34C83.7472 152.115 85.5513 150.311 87.7756 150.311C89.9999 150.311 91.804 152.115 91.804 154.34C91.804 156.564 89.9999 158.368 87.7756 158.368C85.5761 158.393 83.7472 156.589 83.7472 154.34Z" fill="url(#paint5_linear)"/>
<path d="M88.4676 63.0455H87.133V152.041H88.4676V63.0455Z" fill="url(#paint6_linear)"/>
<path d="M149.388 384.082C149.388 381.858 151.192 380.054 153.416 380.054C155.641 380.054 157.445 381.858 157.445 384.082C157.445 386.307 155.641 388.111 153.416 388.111C151.192 388.111 149.388 386.307 149.388 384.082Z" fill="url(#paint7_linear)"/>
<path d="M154.108 292.764H152.774V381.735H154.108V292.764Z" fill="url(#paint8_linear)"/>
<path d="M211.742 124.954C211.742 122.73 213.546 120.926 215.77 120.926C217.994 120.926 219.799 122.73 219.799 124.954C219.799 127.179 217.994 128.983 215.77 128.983C213.546 128.983 211.742 127.179 211.742 124.954Z" fill="url(#paint9_linear)"/>
<path d="M216.438 33.6603H215.103V122.631H216.438V33.6603Z" fill="url(#paint10_linear)"/>
<path d="M100.553 121C100.553 118.776 102.357 116.972 104.581 116.972C106.806 116.972 108.61 118.776 108.61 121C108.61 123.224 106.806 125.029 104.581 125.029C102.357 125.029 100.553 123.224 100.553 121Z" fill="url(#paint11_linear)"/>
<path d="M105.273 74.1916H103.939V118.677H105.273V74.1916Z" fill="url(#paint12_linear)"/>
<path d="M252.495 344.663C252.495 342.439 254.3 340.635 256.524 340.635C258.748 340.635 260.552 342.439 260.552 344.663C260.552 346.888 258.748 348.692 256.524 348.692C254.324 348.692 252.495 346.888 252.495 344.663Z" fill="url(#paint13_linear)"/>
<path d="M257.216 297.83H255.881V342.315H257.216V297.83Z" fill="url(#paint14_linear)"/>
<path d="M20.7261 108.94C20.7261 106.715 22.5302 104.911 24.7545 104.911C26.9787 104.911 28.7829 106.715 28.7829 108.94C28.7829 111.164 26.9787 112.968 24.7545 112.968C22.5302 112.968 20.7261 111.164 20.7261 108.94Z" fill="url(#paint15_linear)"/>
<path d="M25.4465 62.1064H24.1119V106.592H25.4465V62.1064Z" fill="url(#paint16_linear)"/>
<path d="M150.97 47.3026C150.97 45.0783 152.774 43.2742 154.998 43.2742C157.222 43.2742 159.027 45.0783 159.027 47.3026C159.027 49.5269 157.222 51.331 154.998 51.331C152.799 51.3557 150.97 49.5269 150.97 47.3026Z" fill="url(#paint17_linear)"/>
<path d="M155.69 0.493988H154.356V44.9795H155.69V0.493988Z" fill="url(#paint18_linear)"/>
<path d="M94.918 372.862C94.918 370.638 96.7222 368.834 98.9464 368.834C101.171 368.834 102.975 370.638 102.975 372.862C102.975 375.086 101.171 376.89 98.9464 376.89C96.7222 376.89 94.918 375.086 94.918 372.862Z" fill="url(#paint19_linear)"/>
<path d="M99.6137 281.543H98.2791V370.539H99.6137V281.543Z" fill="url(#paint20_linear)"/>
<path d="M210.852 325.633C210.852 323.409 212.656 321.605 214.88 321.605C217.105 321.605 218.909 323.409 218.909 325.633C218.909 327.858 217.105 329.662 214.88 329.662C212.656 329.686 210.852 327.882 210.852 325.633Z" fill="url(#paint21_linear)"/>
<path d="M215.548 234.339H214.213V323.335H215.548V234.339Z" fill="url(#paint22_linear)"/>
<path d="M16.6977 549.815C16.6977 547.591 18.5018 545.787 20.7261 545.787C22.9504 545.787 24.7545 547.591 24.7545 549.815C24.7545 552.04 22.9504 553.844 20.7261 553.844C18.5018 553.869 16.6977 552.04 16.6977 549.815Z" fill="url(#paint23_linear)"/>
<path d="M21.3934 240.468H20.0588V547.492H21.3934V240.468Z" fill="url(#paint24_linear)"/>
<path d="M187.522 374.024C187.522 371.8 189.326 369.995 191.55 369.995C193.775 369.995 195.579 371.8 195.579 374.024C195.579 376.248 193.775 378.052 191.55 378.052C189.326 378.052 187.522 376.248 187.522 374.024Z" fill="url(#paint25_linear)"/>
<path d="M192.218 64.6766H190.883V371.701H192.218V64.6766Z" fill="url(#paint26_linear)"/>
<path d="M79.0021 464.008C79.0021 461.784 80.8062 459.98 83.0305 459.98C85.2547 459.98 87.0589 461.784 87.0589 464.008C87.0589 466.232 85.2547 468.036 83.0305 468.036C80.8062 468.061 79.0021 466.232 79.0021 464.008Z" fill="url(#paint27_linear)"/>
<path d="M83.7225 154.686H82.3879V461.71H83.7225V154.686Z" fill="url(#paint28_linear)"/>
<path d="M164.291 225.862C164.291 223.638 166.095 221.834 168.319 221.834C170.543 221.834 172.347 223.638 172.347 225.862C172.347 228.087 170.543 229.891 168.319 229.891C166.095 229.916 164.291 228.111 164.291 225.862Z" fill="url(#paint29_linear)"/>
<path d="M169.011 53.6788H167.676V223.539H169.011V53.6788Z" fill="url(#paint30_linear)"/>
<path d="M1342.88 439.722C1342.88 437.497 1344.68 435.693 1346.91 435.693C1349.13 435.693 1350.94 437.497 1350.94 439.722C1350.94 441.946 1349.13 443.75 1346.91 443.75C1344.68 443.775 1342.88 441.946 1342.88 439.722Z" fill="url(#paint31_linear)"/>
<path d="M1347.58 375.366H1346.24V437.423H1347.58V375.366Z" fill="url(#paint32_linear)"/>
<path d="M1238.96 349.614C1238.96 347.389 1240.76 345.585 1242.99 345.585C1245.21 345.585 1247.01 347.389 1247.01 349.614C1247.01 351.838 1245.21 353.642 1242.99 353.642C1240.76 353.642 1238.96 351.838 1238.96 349.614Z" fill="url(#paint33_linear)"/>
<path d="M1243.65 186.673H1242.32V347.291H1243.65V186.673Z" fill="url(#paint34_linear)"/>
<path d="M1193.01 210.745C1193.01 208.521 1194.82 206.717 1197.04 206.717C1199.27 206.717 1201.07 208.521 1201.07 210.745C1201.07 212.969 1199.27 214.773 1197.04 214.773C1194.84 214.798 1193.01 212.994 1193.01 210.745Z" fill="url(#paint35_linear)"/>
<path d="M1197.73 119.451H1196.4V208.446H1197.73V119.451Z" fill="url(#paint36_linear)"/>
<path d="M1317.75 280.884C1317.75 278.659 1319.55 276.855 1321.77 276.855C1324 276.855 1325.8 278.659 1325.8 280.884C1325.8 283.108 1324 284.912 1321.77 284.912C1319.55 284.937 1317.75 283.108 1317.75 280.884Z" fill="url(#paint37_linear)"/>
<path d="M1322.44 189.59H1321.11V278.585H1322.44V189.59Z" fill="url(#paint38_linear)"/>
<path d="M1305.91 355.273C1305.91 353.049 1307.71 351.245 1309.94 351.245C1312.16 351.245 1313.97 353.049 1313.97 355.273C1313.97 357.498 1312.16 359.302 1309.94 359.302C1307.71 359.326 1305.91 357.498 1305.91 355.273Z" fill="url(#paint39_linear)"/>
<path d="M1310.63 186.055H1309.29V352.95H1310.63V186.055Z" fill="url(#paint40_linear)"/>
<path d="M1329.36 324.677C1329.36 322.453 1331.17 320.649 1333.39 320.649C1335.61 320.649 1337.42 322.453 1337.42 324.677C1337.42 326.901 1335.61 328.706 1333.39 328.706C1331.17 328.706 1329.36 326.901 1329.36 324.677Z" fill="url(#paint41_linear)"/>
<path d="M1334.08 189.12H1332.75V322.354H1334.08V189.12Z" fill="url(#paint42_linear)"/>
<path d="M1271.88 501.655C1271.88 499.431 1273.68 497.627 1275.91 497.627C1278.13 497.627 1279.93 499.431 1279.93 501.655C1279.93 503.879 1278.13 505.684 1275.91 505.684C1273.71 505.684 1271.88 503.879 1271.88 501.655Z" fill="url(#paint43_linear)"/>
<path d="M1276.6 192.308H1275.26V499.332H1276.6V192.308Z" fill="url(#paint44_linear)"/>
<path d="M1389.39 368.347C1389.39 366.123 1391.2 364.319 1393.42 364.319C1395.65 364.319 1397.45 366.123 1397.45 368.347C1397.45 370.571 1395.65 372.375 1393.42 372.375C1391.2 372.375 1389.39 370.571 1389.39 368.347Z" fill="url(#paint45_linear)"/>
<path d="M1394.11 59H1392.78V366.024H1394.11V59Z" fill="url(#paint46_linear)"/>
<path d="M1203.72 569.248C1203.72 567.024 1205.52 565.22 1207.74 565.22C1209.97 565.22 1211.77 567.024 1211.77 569.248C1211.77 571.473 1209.97 573.277 1207.74 573.277C1205.54 573.277 1203.72 571.473 1203.72 569.248Z" fill="url(#paint47_linear)"/>
<path d="M1208.44 259.901H1207.1V566.925H1208.44V259.901Z" fill="url(#paint48_linear)"/>
<path d="M1151 487.197C1151 484.973 1152.8 483.169 1155.03 483.169C1157.25 483.169 1159.06 484.973 1159.06 487.197C1159.06 489.422 1157.25 491.226 1155.03 491.226C1152.8 491.251 1151 489.446 1151 487.197Z" fill="url(#paint49_linear)"/>
<path d="M1155.7 315.014H1154.36V484.874H1155.7V315.014Z" fill="url(#paint50_linear)"/>
<path d="M1220.45 302.089C1220.45 299.864 1222.25 298.06 1224.48 298.06C1226.7 298.06 1228.5 299.864 1228.5 302.089C1228.5 304.313 1226.7 306.117 1224.48 306.117C1222.25 306.142 1220.45 304.338 1220.45 302.089Z" fill="url(#paint51_linear)"/>
<path d="M1225.17 176.763H1223.83V299.79H1225.17V176.763Z" fill="url(#paint52_linear)"/>
</g>
<defs>
<linearGradient id="paint0_linear" x1="180.224" y1="315.457" x2="180.224" y2="245.437" gradientUnits="userSpaceOnUse">
<stop stop-color="#A4FFFF"/>
<stop offset="1" stop-color="#A4FFFF" stop-opacity="0"/>
</linearGradient>
<linearGradient id="paint1_linear" x1="180.227" y1="315.456" x2="180.227" y2="245.438" gradientUnits="userSpaceOnUse">
<stop stop-color="#A4FFFF"/>
<stop offset="1" stop-color="#A4FFFF" stop-opacity="0"/>
</linearGradient>
<linearGradient id="paint2_linear" x1="-2.53013" y1="205.897" x2="-2.53013" y2="135.856" gradientUnits="userSpaceOnUse">
<stop stop-color="#A4FFFF"/>
<stop offset="1" stop-color="#A4FFFF" stop-opacity="0"/>
</linearGradient>
<linearGradient id="paint3_linear" x1="47.557" y1="111.226" x2="47.557" y2="41.2065" gradientUnits="userSpaceOnUse">
<stop stop-color="#A4FFFF"/>
<stop offset="1" stop-color="#A4FFFF" stop-opacity="0"/>
</linearGradient>
<linearGradient id="paint4_linear" x1="47.5568" y1="111.225" x2="47.5568" y2="41.2073" gradientUnits="userSpaceOnUse">
<stop stop-color="#A4FFFF"/>
<stop offset="1" stop-color="#A4FFFF" stop-opacity="0"/>
</linearGradient>
<linearGradient id="paint5_linear" x1="87.7946" y1="131.676" x2="87.7946" y2="61.6535" gradientUnits="userSpaceOnUse">
<stop stop-color="#A4FFFF"/>
<stop offset="1" stop-color="#A4FFFF" stop-opacity="0"/>
</linearGradient>
<linearGradient id="paint6_linear" x1="87.7946" y1="131.676" x2="87.7946" y2="61.6568" gradientUnits="userSpaceOnUse">
<stop stop-color="#A4FFFF"/>
<stop offset="1" stop-color="#A4FFFF" stop-opacity="0"/>
</linearGradient>
<linearGradient id="paint7_linear" x1="153.431" y1="361.411" x2="153.431" y2="291.41" gradientUnits="userSpaceOnUse">
<stop stop-color="#A4FFFF"/>
<stop offset="1" stop-color="#A4FFFF" stop-opacity="0"/>
</linearGradient>
<linearGradient id="paint8_linear" x1="153.432" y1="361.404" x2="153.432" y2="291.386" gradientUnits="userSpaceOnUse">
<stop stop-color="#A4FFFF"/>
<stop offset="1" stop-color="#A4FFFF" stop-opacity="0"/>
</linearGradient>
<linearGradient id="paint9_linear" x1="215.771" y1="102.282" x2="215.771" y2="32.2625" gradientUnits="userSpaceOnUse">
<stop stop-color="#A4FFFF"/>
<stop offset="1" stop-color="#A4FFFF" stop-opacity="0"/>
</linearGradient>
<linearGradient id="paint10_linear" x1="215.77" y1="102.281" x2="215.77" y2="32.263" gradientUnits="userSpaceOnUse">
<stop stop-color="#A4FFFF"/>
<stop offset="1" stop-color="#A4FFFF" stop-opacity="0"/>
</linearGradient>
<linearGradient id="paint11_linear" x1="104.593" y1="98.3314" x2="104.593" y2="28.3118" gradientUnits="userSpaceOnUse">
<stop stop-color="#A4FFFF"/>
<stop offset="1" stop-color="#A4FFFF" stop-opacity="0"/>
</linearGradient>
<linearGradient id="paint12_linear" x1="104.594" y1="108.507" x2="104.594" y2="73.4979" gradientUnits="userSpaceOnUse">
<stop stop-color="#A4FFFF"/>
<stop offset="1" stop-color="#A4FFFF" stop-opacity="0"/>
</linearGradient>
<linearGradient id="paint13_linear" x1="256.542" y1="321.981" x2="256.542" y2="251.961" gradientUnits="userSpaceOnUse">
<stop stop-color="#A4FFFF"/>
<stop offset="1" stop-color="#A4FFFF" stop-opacity="0"/>
</linearGradient>
<linearGradient id="paint14_linear" x1="256.542" y1="332.157" x2="256.542" y2="297.148" gradientUnits="userSpaceOnUse">
<stop stop-color="#A4FFFF"/>
<stop offset="1" stop-color="#A4FFFF" stop-opacity="0"/>
</linearGradient>
<linearGradient id="paint15_linear" x1="24.771" y1="86.2509" x2="24.771" y2="16.2097" gradientUnits="userSpaceOnUse">
<stop stop-color="#A4FFFF"/>
<stop offset="1" stop-color="#A4FFFF" stop-opacity="0"/>
</linearGradient>
<linearGradient id="paint16_linear" x1="24.7711" y1="96.4351" x2="24.7711" y2="61.4255" gradientUnits="userSpaceOnUse">
<stop stop-color="#A4FFFF"/>
<stop offset="1" stop-color="#A4FFFF" stop-opacity="0"/>
</linearGradient>
<linearGradient id="paint17_linear" x1="155.018" y1="24.6352" x2="155.018" y2="-45.3847" gradientUnits="userSpaceOnUse">
<stop stop-color="#A4FFFF"/>
<stop offset="1" stop-color="#A4FFFF" stop-opacity="0"/>
</linearGradient>
<linearGradient id="paint18_linear" x1="155.02" y1="34.8103" x2="155.02" y2="-0.195785" gradientUnits="userSpaceOnUse">
<stop stop-color="#A4FFFF"/>
<stop offset="1" stop-color="#A4FFFF" stop-opacity="0"/>
</linearGradient>
<linearGradient id="paint19_linear" x1="98.9571" y1="350.188" x2="98.9571" y2="280.168" gradientUnits="userSpaceOnUse">
<stop stop-color="#A4FFFF"/>
<stop offset="1" stop-color="#A4FFFF" stop-opacity="0"/>
</linearGradient>
<linearGradient id="paint20_linear" x1="98.9558" y1="350.188" x2="98.9558" y2="280.168" gradientUnits="userSpaceOnUse">
<stop stop-color="#A4FFFF"/>
<stop offset="1" stop-color="#A4FFFF" stop-opacity="0"/>
</linearGradient>
<linearGradient id="paint21_linear" x1="214.887" y1="302.964" x2="214.887" y2="232.923" gradientUnits="userSpaceOnUse">
<stop stop-color="#A4FFFF"/>
<stop offset="1" stop-color="#A4FFFF" stop-opacity="0"/>
</linearGradient>
<linearGradient id="paint22_linear" x1="214.888" y1="302.97" x2="214.888" y2="232.952" gradientUnits="userSpaceOnUse">
<stop stop-color="#A4FFFF"/>
<stop offset="1" stop-color="#A4FFFF" stop-opacity="0"/>
</linearGradient>
<linearGradient id="paint23_linear" x1="20.7345" y1="510.33" x2="20.7345" y2="385.631" gradientUnits="userSpaceOnUse">
<stop stop-color="#A4FFFF"/>
<stop offset="1" stop-color="#A4FFFF" stop-opacity="0"/>
</linearGradient>
<linearGradient id="paint24_linear" x1="20.7358" y1="479.128" x2="20.7358" y2="249.739" gradientUnits="userSpaceOnUse">
<stop stop-color="#A4FFFF"/>
<stop offset="1" stop-color="#A4FFFF" stop-opacity="0"/>
</linearGradient>
<linearGradient id="paint25_linear" x1="191.548" y1="334.534" x2="191.548" y2="209.835" gradientUnits="userSpaceOnUse">
<stop stop-color="#A4FFFF"/>
<stop offset="1" stop-color="#A4FFFF" stop-opacity="0"/>
</linearGradient>
<linearGradient id="paint26_linear" x1="191.55" y1="303.331" x2="191.55" y2="73.9432" gradientUnits="userSpaceOnUse">
<stop stop-color="#A4FFFF"/>
<stop offset="1" stop-color="#A4FFFF" stop-opacity="0"/>
</linearGradient>
<linearGradient id="paint27_linear" x1="83.0448" y1="424.523" x2="83.0448" y2="299.825" gradientUnits="userSpaceOnUse">
<stop stop-color="#A4FFFF"/>
<stop offset="1" stop-color="#A4FFFF" stop-opacity="0"/>
</linearGradient>
<linearGradient id="paint28_linear" x1="83.0461" y1="393.319" x2="83.0461" y2="163.932" gradientUnits="userSpaceOnUse">
<stop stop-color="#A4FFFF"/>
<stop offset="1" stop-color="#A4FFFF" stop-opacity="0"/>
</linearGradient>
<linearGradient id="paint29_linear" x1="168.33" y1="186.369" x2="168.33" y2="61.632" gradientUnits="userSpaceOnUse">
<stop stop-color="#A4FFFF"/>
<stop offset="1" stop-color="#A4FFFF" stop-opacity="0"/>
</linearGradient>
<linearGradient id="paint30_linear" x1="168.33" y1="185.724" x2="168.33" y2="58.8085" gradientUnits="userSpaceOnUse">
<stop stop-color="#A4FFFF"/>
<stop offset="1" stop-color="#A4FFFF" stop-opacity="0"/>
</linearGradient>
<linearGradient id="paint31_linear" x1="1346.91" y1="417.066" x2="1346.91" y2="347.068" gradientUnits="userSpaceOnUse">
<stop stop-color="#A4FFFF"/>
<stop offset="1" stop-color="#A4FFFF" stop-opacity="0"/>
</linearGradient>
<linearGradient id="paint32_linear" x1="1346.91" y1="423.217" x2="1346.91" y2="374.388" gradientUnits="userSpaceOnUse">
<stop stop-color="#A4FFFF"/>
<stop offset="1" stop-color="#A4FFFF" stop-opacity="0"/>
</linearGradient>
<linearGradient id="paint33_linear" x1="1242.99" y1="326.943" x2="1242.99" y2="256.923" gradientUnits="userSpaceOnUse">
<stop stop-color="#A4FFFF"/>
<stop offset="1" stop-color="#A4FFFF" stop-opacity="0"/>
</linearGradient>
<linearGradient id="paint34_linear" x1="1242.99" y1="310.561" x2="1242.99" y2="184.179" gradientUnits="userSpaceOnUse">
<stop stop-color="#A4FFFF"/>
<stop offset="1" stop-color="#A4FFFF" stop-opacity="0"/>
</linearGradient>
<linearGradient id="paint35_linear" x1="1197.06" y1="188.083" x2="1197.06" y2="118.063" gradientUnits="userSpaceOnUse">
<stop stop-color="#A4FFFF"/>
<stop offset="1" stop-color="#A4FFFF" stop-opacity="0"/>
</linearGradient>
<linearGradient id="paint36_linear" x1="1197.06" y1="188.083" x2="1197.06" y2="118.064" gradientUnits="userSpaceOnUse">
<stop stop-color="#A4FFFF"/>
<stop offset="1" stop-color="#A4FFFF" stop-opacity="0"/>
</linearGradient>
<linearGradient id="paint37_linear" x1="1321.77" y1="258.207" x2="1321.77" y2="188.166" gradientUnits="userSpaceOnUse">
<stop stop-color="#A4FFFF"/>
<stop offset="1" stop-color="#A4FFFF" stop-opacity="0"/>
</linearGradient>
<linearGradient id="paint38_linear" x1="1321.77" y1="258.213" x2="1321.77" y2="188.194" gradientUnits="userSpaceOnUse">
<stop stop-color="#A4FFFF"/>
<stop offset="1" stop-color="#A4FFFF" stop-opacity="0"/>
</linearGradient>
<linearGradient id="paint39_linear" x1="1309.95" y1="315.788" x2="1309.95" y2="191.089" gradientUnits="userSpaceOnUse">
<stop stop-color="#A4FFFF"/>
<stop offset="1" stop-color="#A4FFFF" stop-opacity="0"/>
</linearGradient>
<linearGradient id="paint40_linear" x1="1309.95" y1="315.79" x2="1309.95" y2="191.092" gradientUnits="userSpaceOnUse">
<stop stop-color="#A4FFFF"/>
<stop offset="1" stop-color="#A4FFFF" stop-opacity="0"/>
</linearGradient>
<linearGradient id="paint41_linear" x1="1333.41" y1="285.18" x2="1333.41" y2="160.481" gradientUnits="userSpaceOnUse">
<stop stop-color="#A4FFFF"/>
<stop offset="1" stop-color="#A4FFFF" stop-opacity="0"/>
</linearGradient>
<linearGradient id="paint42_linear" x1="1333.41" y1="292.675" x2="1333.41" y2="193.127" gradientUnits="userSpaceOnUse">
<stop stop-color="#A4FFFF"/>
<stop offset="1" stop-color="#A4FFFF" stop-opacity="0"/>
</linearGradient>
<linearGradient id="paint43_linear" x1="1275.93" y1="462.166" x2="1275.93" y2="337.467" gradientUnits="userSpaceOnUse">
<stop stop-color="#A4FFFF"/>
<stop offset="1" stop-color="#A4FFFF" stop-opacity="0"/>
</linearGradient>
<linearGradient id="paint44_linear" x1="1275.93" y1="430.961" x2="1275.93" y2="201.573" gradientUnits="userSpaceOnUse">
<stop stop-color="#A4FFFF"/>
<stop offset="1" stop-color="#A4FFFF" stop-opacity="0"/>
</linearGradient>
<linearGradient id="paint45_linear" x1="1393.43" y1="328.841" x2="1393.43" y2="204.104" gradientUnits="userSpaceOnUse">
<stop stop-color="#A4FFFF"/>
<stop offset="1" stop-color="#A4FFFF" stop-opacity="0"/>
</linearGradient>
<linearGradient id="paint46_linear" x1="1393.43" y1="297.647" x2="1393.43" y2="68.2592" gradientUnits="userSpaceOnUse">
<stop stop-color="#A4FFFF"/>
<stop offset="1" stop-color="#A4FFFF" stop-opacity="0"/>
</linearGradient>
<linearGradient id="paint47_linear" x1="1207.76" y1="529.758" x2="1207.76" y2="405.06" gradientUnits="userSpaceOnUse">
<stop stop-color="#A4FFFF"/>
<stop offset="1" stop-color="#A4FFFF" stop-opacity="0"/>
</linearGradient>
<linearGradient id="paint48_linear" x1="1207.76" y1="498.554" x2="1207.76" y2="269.168" gradientUnits="userSpaceOnUse">
<stop stop-color="#A4FFFF"/>
<stop offset="1" stop-color="#A4FFFF" stop-opacity="0"/>
</linearGradient>
<linearGradient id="paint49_linear" x1="1155.03" y1="447.719" x2="1155.03" y2="323.02" gradientUnits="userSpaceOnUse">
<stop stop-color="#A4FFFF"/>
<stop offset="1" stop-color="#A4FFFF" stop-opacity="0"/>
</linearGradient>
<linearGradient id="paint50_linear" x1="1155.03" y1="447.058" x2="1155.03" y2="320.146" gradientUnits="userSpaceOnUse">
<stop stop-color="#A4FFFF"/>
<stop offset="1" stop-color="#A4FFFF" stop-opacity="0"/>
</linearGradient>
<linearGradient id="paint51_linear" x1="1224.49" y1="262.61" x2="1224.49" y2="137.912" gradientUnits="userSpaceOnUse">
<stop stop-color="#A4FFFF"/>
<stop offset="1" stop-color="#A4FFFF" stop-opacity="0"/>
</linearGradient>
<linearGradient id="paint52_linear" x1="1224.49" y1="272.385" x2="1224.49" y2="180.474" gradientUnits="userSpaceOnUse">
<stop stop-color="#A4FFFF"/>
<stop offset="1" stop-color="#A4FFFF" stop-opacity="0"/>
</linearGradient>
<clipPath id="clip0">
<rect width="1537" height="572" fill="white" transform="translate(-33)"/>
</clipPath>
</defs>
</svg>
