<svg viewBox="0 0 5000 2617" xmlns="http://www.w3.org/2000/svg" fill-rule="evenodd" clip-rule="evenodd" stroke-linejoin="round" stroke-miterlimit="2"><path fill="#171a50" d="M0 0h5000v2616.67H0z"/><path d="M1829.55 677.445h-3.855l674.304-392.212 674.304 392.212h-3.855v771.017h3.855l-674.304 392.213-674.304-392.213h3.855V677.445z" fill="#fff"/><path d="M2201.98 1061.25v345.221l298.974 173.261 114.639-68.392-297.671-171.959-.652-344.57-115.29 66.439zm146.223 260.357l298.97 172.61 299.536-172.288.424-133.477-300.091 171.812-298.731-171.721-.108 133.064zm4.196-518.807l-298.97 172.61-.562 345.55 116.549 65.085.086-343.771 298.08-172.849-115.183-66.625zm294.505 521.688l298.97-172.61.562-345.55-115.483-66.365-1.152 345.051-298.08 172.849 115.183 66.625zm151.951-259.824V719.443l-298.974-173.262-114.64 68.393 297.672 171.959.651 344.569 115.291-66.438zm-147.104-260.351l-298.97-172.611-299.536 172.289-.224 133.477 299.891-171.812 298.731 171.721.108-133.064z" fill="#171a50"/><text x="606.531" y="2310.18" font-family="'AlfaSlabOne-Regular','Alfa Slab One'" font-size="441.265" fill="#fff">Data Processing</text></svg>