<svg width="130" height="65" fill="none" xmlns="http://www.w3.org/2000/svg"><g clip-path="url(#clip0)"><g filter="url(#filter0_d)"><rect width="130" height="65" rx="10" fill="#516EA9"/></g><path opacity=".8" d="M31.968 47H30.82v-5.4h1.148V47zm-1.216-6.831c0-.205.055-.363.166-.474.114-.11.275-.166.483-.166.202 0 .358.056.47.166.113.111.17.269.17.474a.63.63 0 01-.17.464c-.112.11-.268.166-.47.166-.208 0-.37-.056-.483-.166a.641.641 0 01-.166-.464zM38.864 47h-1.152v-3.32c0-.417-.085-.728-.254-.933-.166-.205-.431-.307-.796-.307-.485 0-.84.143-1.064.43-.225.286-.337.766-.337 1.44V47h-1.148v-5.4h.899l.16.708h.06c.162-.258.393-.456.693-.596.3-.14.631-.21.996-.21 1.296 0 1.943.66 1.943 1.977V47zm4.275.098c-.817 0-1.44-.238-1.866-.713-.423-.479-.634-1.164-.634-2.056 0-.908.221-1.606.664-2.095.446-.488 1.089-.732 1.928-.732.57 0 1.083.106 1.538.317l-.346.923c-.485-.189-.886-.283-1.201-.283-.935 0-1.402.62-1.402 1.86 0 .606.116 1.061.347 1.367.234.303.576.455 1.025.455.511 0 .995-.127 1.45-.381v1a2.267 2.267 0 01-.659.26 3.904 3.904 0 01-.844.078zm6.012-5.596c.231 0 .422.016.572.049l-.113 1.07a2.173 2.173 0 00-.508-.06c-.458 0-.831.15-1.118.45-.283.3-.424.688-.424 1.167V47h-1.148v-5.4h.898l.152.952h.058a2.16 2.16 0 01.699-.767c.29-.189.6-.283.932-.283zm4.436 5.596c-.84 0-1.498-.245-1.973-.733-.472-.491-.708-1.167-.708-2.026 0-.882.22-1.576.66-2.08.439-.505 1.043-.757 1.811-.757.713 0 1.276.216 1.69.65.413.432.62 1.028.62 1.786v.62h-3.6c.017.525.159.928.426 1.212.267.28.643.42 1.128.42.319 0 .615-.03.888-.088a4.8 4.8 0 00.889-.303v.932c-.28.134-.563.228-.85.284a5.205 5.205 0 01-.981.083zm-.21-4.727c-.365 0-.658.116-.879.347-.218.23-.348.568-.39 1.01h2.45c-.006-.445-.113-.782-.322-1.01-.208-.231-.494-.347-.859-.347zM60.869 47l-.23-.752h-.038c-.26.329-.523.553-.786.674-.264.117-.603.176-1.016.176-.53 0-.946-.144-1.245-.43-.297-.286-.445-.692-.445-1.216 0-.556.207-.976.62-1.26.414-.283 1.044-.437 1.89-.464l.933-.029v-.288c0-.345-.082-.602-.244-.771-.16-.173-.409-.26-.748-.26-.276 0-.541.041-.795.123a6.007 6.007 0 00-.733.288l-.37-.82a3.9 3.9 0 01.961-.347 4.36 4.36 0 01.986-.122c.687 0 1.205.15 1.553.45.352.299.528.769.528 1.41V47h-.82zm-1.709-.781c.417 0 .75-.116 1.001-.347.254-.234.381-.562.381-.981v-.47l-.693.03c-.54.02-.935.11-1.182.274-.244.16-.366.405-.366.737 0 .24.071.428.215.561.143.13.358.196.644.196zm8.259-.757c0 .527-.192.932-.576 1.216-.384.28-.934.42-1.65.42-.72 0-1.298-.11-1.734-.328v-.99c.635.292 1.226.439 1.772.439.707 0 1.06-.214 1.06-.64a.507.507 0 00-.117-.342 1.389 1.389 0 00-.386-.283 6.638 6.638 0 00-.747-.332c-.622-.24-1.043-.482-1.265-.723-.218-.24-.327-.553-.327-.937 0-.462.186-.82.557-1.074.374-.258.882-.386 1.523-.386.635 0 1.236.128 1.802.386l-.371.864c-.583-.24-1.073-.361-1.47-.361-.605 0-.908.172-.908.517 0 .17.078.313.234.43.16.117.505.278 1.036.483.445.173.77.33.971.474.202.143.352.31.45.498.097.185.146.409.146.669zm4.103 1.636c-.84 0-1.497-.245-1.972-.733-.472-.491-.708-1.167-.708-2.026 0-.882.22-1.576.659-2.08.44-.505 1.043-.757 1.811-.757.713 0 1.276.216 1.69.65.413.432.62 1.028.62 1.786v.62h-3.599c.017.525.158.928.425 1.212.267.28.643.42 1.128.42.32 0 .615-.03.889-.088a4.79 4.79 0 00.888-.303v.932c-.28.134-.563.228-.85.284a5.204 5.204 0 01-.98.083zm-.21-4.727c-.364 0-.657.116-.878.347-.218.23-.349.568-.391 1.01h2.451c-.006-.445-.114-.782-.322-1.01-.209-.231-.495-.347-.86-.347zM81.513 47h-1.148v-4.61c0-.55.013-.986.04-1.308a3.807 3.807 0 01-.279.259c-.107.094-.472.394-1.094.898l-.576-.727 2.1-1.65h.957V47zm7.682 0h-4.838v-.87l1.84-1.85c.544-.556.904-.95 1.08-1.181.178-.235.309-.454.39-.66a1.77 1.77 0 00.122-.659c0-.322-.098-.576-.293-.761-.192-.186-.459-.279-.8-.279-.274 0-.54.05-.797.152-.254.1-.548.283-.883.546l-.62-.756c.397-.336.782-.573 1.157-.713.374-.14.773-.21 1.196-.21.664 0 1.196.174 1.597.522.4.345.6.81.6 1.397 0 .322-.058.628-.175.918a3.66 3.66 0 01-.533.898c-.237.306-.634.721-1.191 1.245l-1.24 1.201v.05h3.388V47zm2.297-5c0 .485.047.846.142 1.084.094.238.249.356.464.356.43 0 .644-.48.644-1.44s-.215-1.44-.644-1.44c-.215 0-.37.118-.464.356-.095.238-.142.599-.142 1.084zm2.198-.01c0 .749-.136 1.312-.406 1.69-.267.374-.662.561-1.186.561-.495 0-.88-.194-1.153-.58-.27-.392-.405-.948-.405-1.67 0-1.488.52-2.232 1.558-2.232.51 0 .903.194 1.176.58.277.385.416.935.416 1.651zm2.45 2.862c0 .485.048.848.142 1.088.098.241.254.362.469.362.426 0 .64-.484.64-1.45 0-.954-.214-1.431-.64-1.431-.215 0-.371.117-.469.352-.094.234-.141.593-.141 1.079zm2.198 0c0 .748-.135 1.31-.405 1.684-.27.374-.664.562-1.182.562-.495 0-.879-.192-1.152-.576-.274-.388-.41-.944-.41-1.67 0-1.488.52-2.232 1.562-2.232.501 0 .89.192 1.167.576.28.384.42.936.42 1.656zm-1.45-4.99L92.927 47h-.948l3.96-7.139h.948z" fill="#fff"/><path d="M38.24 22.168a3.567 3.567 0 00-1.152-.528 4.488 4.488 0 00-1.296-.192c-1.003 0-1.76.336-2.272 1.008-.501.672-.736 1.59-.704 2.752a2.77 2.77 0 011.168-1.104c.501-.256 1.093-.384 1.776-.384 1.11 0 1.99.325 2.64.976.65.65.976 1.52.976 2.608 0 .768-.165 1.44-.496 2.016a3.35 3.35 0 01-1.408 1.312c-.597.31-1.296.464-2.096.464-.95 0-1.77-.219-2.464-.656-.693-.437-1.227-1.067-1.6-1.888-.363-.821-.544-1.803-.544-2.944 0-1.184.197-2.219.592-3.104.405-.896.976-1.584 1.712-2.064.736-.49 1.6-.736 2.592-.736.576 0 1.168.08 1.776.24.619.15 1.157.357 1.616.624l-.816 1.6zm-2.896 3.2c-.683 0-1.227.192-1.632.576a1.832 1.832 0 00-.592 1.424c-.01.32.064.63.224.928.16.288.4.528.72.72.33.181.736.272 1.216.272.64 0 1.152-.176 1.536-.528.384-.352.576-.843.576-1.472 0-.587-.187-1.05-.56-1.392-.363-.352-.859-.528-1.488-.528zm21.215-3.008c.97 0 1.733.299 2.288.896.554.587.832 1.387.832 2.4V31h-2.096v-4.736c0-.608-.17-1.083-.512-1.424-.33-.352-.784-.528-1.36-.528-.661.021-1.19.261-1.584.72-.384.459-.576 1.04-.576 1.744V31h-2.096v-4.736c0-.608-.166-1.083-.496-1.424-.33-.352-.784-.528-1.36-.528-.672.021-1.205.261-1.6.72-.384.459-.576 1.04-.576 1.744V31h-2.08v-8.56h2.08v1.584c.565-1.088 1.568-1.643 3.008-1.664.747 0 1.37.181 1.872.544.512.352.87.853 1.072 1.504.544-1.344 1.605-2.027 3.184-2.048zm9.184.016c.886 0 1.664.181 2.336.544.683.363 1.21.875 1.584 1.536.384.65.576 1.403.576 2.256 0 .864-.192 1.627-.576 2.288a3.857 3.857 0 01-1.584 1.536c-.672.363-1.45.544-2.336.544-.896 0-1.685-.181-2.368-.544a3.963 3.963 0 01-1.6-1.536c-.373-.661-.56-1.424-.56-2.288 0-.853.187-1.605.56-2.256a3.963 3.963 0 011.6-1.536c.683-.363 1.472-.544 2.368-.544zm0 1.776c-.725 0-1.312.24-1.76.72-.448.48-.672 1.104-.672 1.872s.224 1.392.672 1.872c.448.48 1.035.72 1.76.72.704 0 1.28-.24 1.728-.72.448-.48.672-1.104.672-1.872s-.224-1.392-.672-1.872c-.448-.48-1.024-.72-1.728-.72zm11.455-1.792c.981 0 1.755.299 2.32.896.565.587.848 1.387.848 2.4V31H78.27v-4.736c0-.597-.17-1.067-.512-1.408-.341-.352-.805-.528-1.392-.528-.693.01-1.243.245-1.648.704-.395.459-.592 1.045-.592 1.76V31h-2.08v-8.56h2.08v1.6c.587-1.099 1.61-1.659 3.072-1.68zm10.512 8.112c-.682.416-1.397.624-2.144.624-.736 0-1.338-.213-1.808-.64-.47-.437-.704-1.077-.704-1.92v-4.224h-1.2l-.016-1.52h1.216V20.44h2.064v2.352h2.448v1.52h-2.448v3.856c0 .395.075.677.224.848.15.16.374.24.672.24.32 0 .726-.117 1.216-.352l.48 1.568zm6.88-8.112c.982 0 1.755.299 2.32.896.566.587.849 1.387.849 2.4V31h-2.096v-4.736c0-.597-.17-1.067-.512-1.408-.341-.352-.805-.528-1.392-.528-.694.01-1.243.245-1.648.704-.406.459-.608 1.045-.608 1.76V31h-2.08V19.128h2.08v4.944c.587-1.12 1.616-1.69 3.088-1.712z" fill="#fff"/></g><defs><clipPath id="clip0"><path fill="#fff" d="M0 0h130v65H0z"/></clipPath><filter id="filter0_d" x="-68" y="-44" width="250" height="185" filterUnits="userSpaceOnUse" color-interpolation-filters="sRGB"><feFlood flood-opacity="0" result="BackgroundImageFix"/><feColorMatrix in="SourceAlpha" values="0 0 0 0 0 0 0 0 0 0 0 0 0 0 0 0 0 0 127 0"/><feOffset dx="-8" dy="16"/><feGaussianBlur stdDeviation="30"/><feColorMatrix values="0 0 0 0 0.322856 0 0 0 0 0.446289 0 0 0 0 0.545035 0 0 0 0.24 0"/><feBlend in2="BackgroundImageFix" result="effect1_dropShadow"/><feBlend in="SourceGraphic" in2="effect1_dropShadow" result="shape"/></filter></defs></svg>