<?xml version="1.0" encoding="UTF-8" standalone="no"?><!DOCTYPE svg PUBLIC "-//W3C//DTD SVG 1.1//EN" "http://www.w3.org/Graphics/SVG/1.1/DTD/svg11.dtd"><svg width="100%" height="100%" viewBox="0 0 5000 2617" version="1.1" xmlns="http://www.w3.org/2000/svg" xmlns:xlink="http://www.w3.org/1999/xlink" xml:space="preserve" xmlns:serif="http://www.serif.com/" style="fill-rule:evenodd;clip-rule:evenodd;stroke-linejoin:round;stroke-miterlimit:2;"><rect x="-0" y="0" width="5000" height="2616.67" style="fill:#171a50;"/><path d="M1829.55,677.445l-3.855,0l674.304,-392.212l674.304,392.212l-3.855,0l0,771.017l3.855,0l-674.304,392.213l-674.304,-392.213l3.855,0l-0,-771.017Z" style="fill:#fff;"/><path d="M2201.98,1061.25l-0,345.221l298.974,173.261l114.639,-68.392l-297.671,-171.959l-0.652,-344.57l-115.29,66.439Zm146.223,260.357l298.97,172.61l299.536,-172.288l0.424,-133.477l-300.091,171.812l-298.731,-171.721l-0.108,133.064Zm4.196,-518.807l-298.97,172.61l-0.562,345.55l116.549,65.085l0.086,-343.771l298.08,-172.849l-115.183,-66.625Zm294.505,521.688l298.97,-172.61l0.562,-345.55l-115.483,-66.365l-1.152,345.051l-298.08,172.849l115.183,66.625Zm151.951,-259.824l-0,-345.221l-298.974,-173.262l-114.64,68.393l297.672,171.959l0.651,344.569l115.291,-66.438Zm-147.104,-260.351l-298.97,-172.611l-299.536,172.289l-0.224,133.477l299.891,-171.812l298.731,171.721l0.108,-133.064Z" style="fill:#171a50;"/><text x="606.531px" y="2310.18px" style="font-family:'AlfaSlabOne-Regular', 'Alfa Slab One';font-size:441.265px;fill:#fff;">Data Processing</text></svg>