<?xml version="1.0" encoding="UTF-8" standalone="no"?><!DOCTYPE svg PUBLIC "-//W3C//DTD SVG 1.1//EN" "http://www.w3.org/Graphics/SVG/1.1/DTD/svg11.dtd"><svg width="100%" height="100%" viewBox="0 0 167 167" version="1.1" xmlns="http://www.w3.org/2000/svg" xmlns:xlink="http://www.w3.org/1999/xlink" xml:space="preserve" xmlns:serif="http://www.serif.com/" style="fill-rule:evenodd;clip-rule:evenodd;stroke-linejoin:round;stroke-miterlimit:2;"><path d="M83.333,0c45.993,0 83.334,37.34 83.334,83.333c-0,45.993 -37.341,83.334 -83.334,83.334c-45.993,-0 -83.333,-37.341 -83.333,-83.334c0,-45.993 37.34,-83.333 83.333,-83.333Zm0,31.773l-58.925,58.926c-3.907,3.907 -6.102,9.206 -6.102,14.731c-0,5.526 2.195,10.825 6.102,14.732c-0,-0 -0,-0 -0,-0c3.907,3.907 9.206,6.102 14.731,6.102c5.526,-0 10.825,-2.195 14.732,-6.102c12.854,-12.854 29.462,-29.463 29.462,-29.463c0,0 16.609,16.609 29.463,29.463c3.907,3.907 9.206,6.102 14.731,6.102c5.526,-0 10.825,-2.195 14.732,-6.102c0.002,-0.002 0.004,-0.004 0.006,-0.006c3.905,-3.906 6.099,-9.202 6.099,-14.726c0,-5.523 -2.194,-10.82 -6.099,-14.725l-58.932,-58.932Z" style="fill:#f2994a;"/></svg>