<svg width="1440" height="572" fill="none" xmlns="http://www.w3.org/2000/svg"><g opacity=".1" clip-path="url(#clip0)"><path d="M176.178 338.139a4.03 4.03 0 114.029 4.028c-2.2 0-4.029-1.804-4.029-4.028z" fill="url(#paint0_linear)"/><path d="M180.899 246.82h-1.335v88.971h1.335V246.82z" fill="url(#paint1_linear)"/><path d="M-6.558 228.581a4.03 4.03 0 014.028-4.029 4.029 4.029 0 11-4.028 4.029z" fill="url(#paint2_linear)"/><path d="M43.513 133.901a4.029 4.029 0 118.057.002 4.029 4.029 0 01-8.057-.002z" fill="url(#paint3_linear)"/><path d="M48.233 42.582h-1.335v88.971h1.335v-88.97z" fill="url(#paint4_linear)"/><path d="M83.747 154.34a4.03 4.03 0 114.029 4.028c-2.2.025-4.029-1.779-4.029-4.028z" fill="url(#paint5_linear)"/><path d="M88.468 63.045h-1.335v88.996h1.335V63.046z" fill="url(#paint6_linear)"/><path d="M149.388 384.082a4.029 4.029 0 118.058.002 4.029 4.029 0 01-8.058-.002z" fill="url(#paint7_linear)"/><path d="M154.108 292.764h-1.334v88.971h1.334v-88.971z" fill="url(#paint8_linear)"/><path d="M211.742 124.954a4.029 4.029 0 118.058.002 4.029 4.029 0 01-8.058-.002z" fill="url(#paint9_linear)"/><path d="M216.438 33.66h-1.335v88.971h1.335v-88.97z" fill="url(#paint10_linear)"/><path d="M100.553 121a4.029 4.029 0 118.058.002 4.029 4.029 0 01-8.058-.002z" fill="url(#paint11_linear)"/><path d="M105.273 74.192h-1.334v44.485h1.334V74.192z" fill="url(#paint12_linear)"/><path d="M252.495 344.663a4.03 4.03 0 018.057 0 4.029 4.029 0 01-4.028 4.029c-2.2 0-4.029-1.804-4.029-4.029z" fill="url(#paint13_linear)"/><path d="M257.216 297.83h-1.335v44.485h1.335V297.83z" fill="url(#paint14_linear)"/><path d="M20.726 108.94a4.03 4.03 0 118.058 0 4.03 4.03 0 01-8.058 0z" fill="url(#paint15_linear)"/><path d="M25.447 62.106h-1.335v44.486h1.335V62.106z" fill="url(#paint16_linear)"/><path d="M150.97 47.303a4.029 4.029 0 114.028 4.028c-2.199.025-4.028-1.804-4.028-4.028z" fill="url(#paint17_linear)"/><path d="M155.69.494h-1.334V44.98h1.334V.494z" fill="url(#paint18_linear)"/><path d="M94.918 372.862a4.029 4.029 0 118.058.002 4.029 4.029 0 01-8.058-.002z" fill="url(#paint19_linear)"/><path d="M99.614 281.543h-1.335v88.996h1.335v-88.996z" fill="url(#paint20_linear)"/><path d="M210.852 325.633a4.029 4.029 0 114.028 4.029c-2.224.024-4.028-1.78-4.028-4.029z" fill="url(#paint21_linear)"/><path d="M215.548 234.339h-1.335v88.996h1.335v-88.996z" fill="url(#paint22_linear)"/><path d="M16.698 549.815a4.029 4.029 0 114.028 4.029c-2.224.025-4.028-1.804-4.028-4.029z" fill="url(#paint23_linear)"/><path d="M21.393 240.468H20.06v307.024h1.334V240.468z" fill="url(#paint24_linear)"/><path d="M187.522 374.024a4.03 4.03 0 018.057 0 4.029 4.029 0 01-8.057 0z" fill="url(#paint25_linear)"/><path d="M192.218 64.677h-1.335V371.7h1.335V64.677z" fill="url(#paint26_linear)"/><path d="M79.002 464.008a4.029 4.029 0 114.029 4.028c-2.225.025-4.029-1.804-4.029-4.028z" fill="url(#paint27_linear)"/><path d="M83.722 154.686h-1.334V461.71h1.334V154.686z" fill="url(#paint28_linear)"/><path d="M164.291 225.862a4.029 4.029 0 114.028 4.029c-2.224.025-4.028-1.78-4.028-4.029z" fill="url(#paint29_linear)"/><path d="M169.011 53.679h-1.335v169.86h1.335V53.679z" fill="url(#paint30_linear)"/><path d="M1342.88 439.722c0-2.225 1.8-4.029 4.03-4.029 2.22 0 4.03 1.804 4.03 4.029a4.033 4.033 0 01-4.03 4.028c-2.23.025-4.03-1.804-4.03-4.028z" fill="url(#paint31_linear)"/><path d="M1347.58 375.366h-1.34v62.057h1.34v-62.057z" fill="url(#paint32_linear)"/><path d="M1238.96 349.614a4.025 4.025 0 118.05 0 4.025 4.025 0 11-8.05 0z" fill="url(#paint33_linear)"/><path d="M1243.65 186.673h-1.33v160.618h1.33V186.673z" fill="url(#paint34_linear)"/><path d="M1193.01 210.745a4.033 4.033 0 014.03-4.028c2.23 0 4.03 1.804 4.03 4.028 0 2.224-1.8 4.028-4.03 4.028-2.2.025-4.03-1.779-4.03-4.028z" fill="url(#paint35_linear)"/><path d="M1197.73 119.451h-1.33v88.995h1.33v-88.995z" fill="url(#paint36_linear)"/><path d="M1317.75 280.884a4.025 4.025 0 118.05 0c0 2.224-1.8 4.028-4.03 4.028-2.22.025-4.02-1.804-4.02-4.028z" fill="url(#paint37_linear)"/><path d="M1322.44 189.59h-1.33v88.995h1.33V189.59z" fill="url(#paint38_linear)"/><path d="M1305.91 355.273c0-2.224 1.8-4.028 4.03-4.028 2.22 0 4.03 1.804 4.03 4.028a4.033 4.033 0 01-4.03 4.029c-2.23.024-4.03-1.804-4.03-4.029z" fill="url(#paint39_linear)"/><path d="M1310.63 186.055h-1.34V352.95h1.34V186.055z" fill="url(#paint40_linear)"/><path d="M1329.36 324.677a4.033 4.033 0 014.03-4.028c2.22 0 4.03 1.804 4.03 4.028a4.034 4.034 0 01-4.03 4.029 4.034 4.034 0 01-4.03-4.029z" fill="url(#paint41_linear)"/><path d="M1334.08 189.12h-1.33v133.234h1.33V189.12z" fill="url(#paint42_linear)"/><path d="M1271.88 501.655a4.025 4.025 0 118.05 0c0 2.224-1.8 4.029-4.02 4.029-2.2 0-4.03-1.805-4.03-4.029z" fill="url(#paint43_linear)"/><path d="M1276.6 192.308h-1.34v307.024h1.34V192.308z" fill="url(#paint44_linear)"/><path d="M1389.39 368.347a4.033 4.033 0 014.03-4.028c2.23 0 4.03 1.804 4.03 4.028 0 2.224-1.8 4.028-4.03 4.028a4.033 4.033 0 01-4.03-4.028z" fill="url(#paint45_linear)"/><path d="M1394.11 59h-1.33v307.024h1.33V59z" fill="url(#paint46_linear)"/><path d="M1203.72 569.248a4.025 4.025 0 118.05 0c0 2.225-1.8 4.029-4.03 4.029-2.2 0-4.02-1.804-4.02-4.029z" fill="url(#paint47_linear)"/><path d="M1208.44 259.901h-1.34v307.024h1.34V259.901z" fill="url(#paint48_linear)"/><path d="M1151 487.197c0-2.224 1.8-4.028 4.03-4.028 2.22 0 4.03 1.804 4.03 4.028a4.033 4.033 0 01-4.03 4.029c-2.23.025-4.03-1.78-4.03-4.029z" fill="url(#paint49_linear)"/><path d="M1155.7 315.014h-1.34v169.86h1.34v-169.86z" fill="url(#paint50_linear)"/><path d="M1220.45 302.089a4.025 4.025 0 118.05 0c0 2.224-1.8 4.028-4.02 4.028-2.23.025-4.03-1.779-4.03-4.028z" fill="url(#paint51_linear)"/><path d="M1225.17 176.763h-1.34V299.79h1.34V176.763z" fill="url(#paint52_linear)"/></g><defs><linearGradient id="paint0_linear" x1="180.224" y1="315.457" x2="180.224" y2="245.437" gradientUnits="userSpaceOnUse"><stop stop-color="#A4FFFF"/><stop offset="1" stop-color="#A4FFFF" stop-opacity="0"/></linearGradient><linearGradient id="paint1_linear" x1="180.227" y1="315.456" x2="180.227" y2="245.438" gradientUnits="userSpaceOnUse"><stop stop-color="#A4FFFF"/><stop offset="1" stop-color="#A4FFFF" stop-opacity="0"/></linearGradient><linearGradient id="paint2_linear" x1="-2.53" y1="205.897" x2="-2.53" y2="135.856" gradientUnits="userSpaceOnUse"><stop stop-color="#A4FFFF"/><stop offset="1" stop-color="#A4FFFF" stop-opacity="0"/></linearGradient><linearGradient id="paint3_linear" x1="47.557" y1="111.226" x2="47.557" y2="41.206" gradientUnits="userSpaceOnUse"><stop stop-color="#A4FFFF"/><stop offset="1" stop-color="#A4FFFF" stop-opacity="0"/></linearGradient><linearGradient id="paint4_linear" x1="47.557" y1="111.225" x2="47.557" y2="41.207" gradientUnits="userSpaceOnUse"><stop stop-color="#A4FFFF"/><stop offset="1" stop-color="#A4FFFF" stop-opacity="0"/></linearGradient><linearGradient id="paint5_linear" x1="87.795" y1="131.676" x2="87.795" y2="61.654" gradientUnits="userSpaceOnUse"><stop stop-color="#A4FFFF"/><stop offset="1" stop-color="#A4FFFF" stop-opacity="0"/></linearGradient><linearGradient id="paint6_linear" x1="87.795" y1="131.676" x2="87.795" y2="61.657" gradientUnits="userSpaceOnUse"><stop stop-color="#A4FFFF"/><stop offset="1" stop-color="#A4FFFF" stop-opacity="0"/></linearGradient><linearGradient id="paint7_linear" x1="153.431" y1="361.411" x2="153.431" y2="291.41" gradientUnits="userSpaceOnUse"><stop stop-color="#A4FFFF"/><stop offset="1" stop-color="#A4FFFF" stop-opacity="0"/></linearGradient><linearGradient id="paint8_linear" x1="153.432" y1="361.404" x2="153.432" y2="291.386" gradientUnits="userSpaceOnUse"><stop stop-color="#A4FFFF"/><stop offset="1" stop-color="#A4FFFF" stop-opacity="0"/></linearGradient><linearGradient id="paint9_linear" x1="215.771" y1="102.282" x2="215.771" y2="32.263" gradientUnits="userSpaceOnUse"><stop stop-color="#A4FFFF"/><stop offset="1" stop-color="#A4FFFF" stop-opacity="0"/></linearGradient><linearGradient id="paint10_linear" x1="215.77" y1="102.281" x2="215.77" y2="32.263" gradientUnits="userSpaceOnUse"><stop stop-color="#A4FFFF"/><stop offset="1" stop-color="#A4FFFF" stop-opacity="0"/></linearGradient><linearGradient id="paint11_linear" x1="104.593" y1="98.331" x2="104.593" y2="28.312" gradientUnits="userSpaceOnUse"><stop stop-color="#A4FFFF"/><stop offset="1" stop-color="#A4FFFF" stop-opacity="0"/></linearGradient><linearGradient id="paint12_linear" x1="104.594" y1="108.507" x2="104.594" y2="73.498" gradientUnits="userSpaceOnUse"><stop stop-color="#A4FFFF"/><stop offset="1" stop-color="#A4FFFF" stop-opacity="0"/></linearGradient><linearGradient id="paint13_linear" x1="256.542" y1="321.981" x2="256.542" y2="251.961" gradientUnits="userSpaceOnUse"><stop stop-color="#A4FFFF"/><stop offset="1" stop-color="#A4FFFF" stop-opacity="0"/></linearGradient><linearGradient id="paint14_linear" x1="256.542" y1="332.157" x2="256.542" y2="297.148" gradientUnits="userSpaceOnUse"><stop stop-color="#A4FFFF"/><stop offset="1" stop-color="#A4FFFF" stop-opacity="0"/></linearGradient><linearGradient id="paint15_linear" x1="24.771" y1="86.251" x2="24.771" y2="16.21" gradientUnits="userSpaceOnUse"><stop stop-color="#A4FFFF"/><stop offset="1" stop-color="#A4FFFF" stop-opacity="0"/></linearGradient><linearGradient id="paint16_linear" x1="24.771" y1="96.435" x2="24.771" y2="61.425" gradientUnits="userSpaceOnUse"><stop stop-color="#A4FFFF"/><stop offset="1" stop-color="#A4FFFF" stop-opacity="0"/></linearGradient><linearGradient id="paint17_linear" x1="155.018" y1="24.635" x2="155.018" y2="-45.385" gradientUnits="userSpaceOnUse"><stop stop-color="#A4FFFF"/><stop offset="1" stop-color="#A4FFFF" stop-opacity="0"/></linearGradient><linearGradient id="paint18_linear" x1="155.02" y1="34.81" x2="155.02" y2="-.196" gradientUnits="userSpaceOnUse"><stop stop-color="#A4FFFF"/><stop offset="1" stop-color="#A4FFFF" stop-opacity="0"/></linearGradient><linearGradient id="paint19_linear" x1="98.957" y1="350.188" x2="98.957" y2="280.168" gradientUnits="userSpaceOnUse"><stop stop-color="#A4FFFF"/><stop offset="1" stop-color="#A4FFFF" stop-opacity="0"/></linearGradient><linearGradient id="paint20_linear" x1="98.956" y1="350.188" x2="98.956" y2="280.168" gradientUnits="userSpaceOnUse"><stop stop-color="#A4FFFF"/><stop offset="1" stop-color="#A4FFFF" stop-opacity="0"/></linearGradient><linearGradient id="paint21_linear" x1="214.887" y1="302.964" x2="214.887" y2="232.923" gradientUnits="userSpaceOnUse"><stop stop-color="#A4FFFF"/><stop offset="1" stop-color="#A4FFFF" stop-opacity="0"/></linearGradient><linearGradient id="paint22_linear" x1="214.888" y1="302.97" x2="214.888" y2="232.952" gradientUnits="userSpaceOnUse"><stop stop-color="#A4FFFF"/><stop offset="1" stop-color="#A4FFFF" stop-opacity="0"/></linearGradient><linearGradient id="paint23_linear" x1="20.735" y1="510.33" x2="20.735" y2="385.631" gradientUnits="userSpaceOnUse"><stop stop-color="#A4FFFF"/><stop offset="1" stop-color="#A4FFFF" stop-opacity="0"/></linearGradient><linearGradient id="paint24_linear" x1="20.736" y1="479.128" x2="20.736" y2="249.739" gradientUnits="userSpaceOnUse"><stop stop-color="#A4FFFF"/><stop offset="1" stop-color="#A4FFFF" stop-opacity="0"/></linearGradient><linearGradient id="paint25_linear" x1="191.548" y1="334.534" x2="191.548" y2="209.835" gradientUnits="userSpaceOnUse"><stop stop-color="#A4FFFF"/><stop offset="1" stop-color="#A4FFFF" stop-opacity="0"/></linearGradient><linearGradient id="paint26_linear" x1="191.55" y1="303.331" x2="191.55" y2="73.943" gradientUnits="userSpaceOnUse"><stop stop-color="#A4FFFF"/><stop offset="1" stop-color="#A4FFFF" stop-opacity="0"/></linearGradient><linearGradient id="paint27_linear" x1="83.045" y1="424.523" x2="83.045" y2="299.825" gradientUnits="userSpaceOnUse"><stop stop-color="#A4FFFF"/><stop offset="1" stop-color="#A4FFFF" stop-opacity="0"/></linearGradient><linearGradient id="paint28_linear" x1="83.046" y1="393.319" x2="83.046" y2="163.932" gradientUnits="userSpaceOnUse"><stop stop-color="#A4FFFF"/><stop offset="1" stop-color="#A4FFFF" stop-opacity="0"/></linearGradient><linearGradient id="paint29_linear" x1="168.33" y1="186.369" x2="168.33" y2="61.632" gradientUnits="userSpaceOnUse"><stop stop-color="#A4FFFF"/><stop offset="1" stop-color="#A4FFFF" stop-opacity="0"/></linearGradient><linearGradient id="paint30_linear" x1="168.33" y1="185.724" x2="168.33" y2="58.809" gradientUnits="userSpaceOnUse"><stop stop-color="#A4FFFF"/><stop offset="1" stop-color="#A4FFFF" stop-opacity="0"/></linearGradient><linearGradient id="paint31_linear" x1="1346.91" y1="417.066" x2="1346.91" y2="347.068" gradientUnits="userSpaceOnUse"><stop stop-color="#A4FFFF"/><stop offset="1" stop-color="#A4FFFF" stop-opacity="0"/></linearGradient><linearGradient id="paint32_linear" x1="1346.91" y1="423.217" x2="1346.91" y2="374.388" gradientUnits="userSpaceOnUse"><stop stop-color="#A4FFFF"/><stop offset="1" stop-color="#A4FFFF" stop-opacity="0"/></linearGradient><linearGradient id="paint33_linear" x1="1242.99" y1="326.943" x2="1242.99" y2="256.923" gradientUnits="userSpaceOnUse"><stop stop-color="#A4FFFF"/><stop offset="1" stop-color="#A4FFFF" stop-opacity="0"/></linearGradient><linearGradient id="paint34_linear" x1="1242.99" y1="310.561" x2="1242.99" y2="184.179" gradientUnits="userSpaceOnUse"><stop stop-color="#A4FFFF"/><stop offset="1" stop-color="#A4FFFF" stop-opacity="0"/></linearGradient><linearGradient id="paint35_linear" x1="1197.06" y1="188.083" x2="1197.06" y2="118.063" gradientUnits="userSpaceOnUse"><stop stop-color="#A4FFFF"/><stop offset="1" stop-color="#A4FFFF" stop-opacity="0"/></linearGradient><linearGradient id="paint36_linear" x1="1197.06" y1="188.083" x2="1197.06" y2="118.064" gradientUnits="userSpaceOnUse"><stop stop-color="#A4FFFF"/><stop offset="1" stop-color="#A4FFFF" stop-opacity="0"/></linearGradient><linearGradient id="paint37_linear" x1="1321.77" y1="258.207" x2="1321.77" y2="188.166" gradientUnits="userSpaceOnUse"><stop stop-color="#A4FFFF"/><stop offset="1" stop-color="#A4FFFF" stop-opacity="0"/></linearGradient><linearGradient id="paint38_linear" x1="1321.77" y1="258.213" x2="1321.77" y2="188.194" gradientUnits="userSpaceOnUse"><stop stop-color="#A4FFFF"/><stop offset="1" stop-color="#A4FFFF" stop-opacity="0"/></linearGradient><linearGradient id="paint39_linear" x1="1309.95" y1="315.788" x2="1309.95" y2="191.089" gradientUnits="userSpaceOnUse"><stop stop-color="#A4FFFF"/><stop offset="1" stop-color="#A4FFFF" stop-opacity="0"/></linearGradient><linearGradient id="paint40_linear" x1="1309.95" y1="315.79" x2="1309.95" y2="191.092" gradientUnits="userSpaceOnUse"><stop stop-color="#A4FFFF"/><stop offset="1" stop-color="#A4FFFF" stop-opacity="0"/></linearGradient><linearGradient id="paint41_linear" x1="1333.41" y1="285.18" x2="1333.41" y2="160.481" gradientUnits="userSpaceOnUse"><stop stop-color="#A4FFFF"/><stop offset="1" stop-color="#A4FFFF" stop-opacity="0"/></linearGradient><linearGradient id="paint42_linear" x1="1333.41" y1="292.675" x2="1333.41" y2="193.127" gradientUnits="userSpaceOnUse"><stop stop-color="#A4FFFF"/><stop offset="1" stop-color="#A4FFFF" stop-opacity="0"/></linearGradient><linearGradient id="paint43_linear" x1="1275.93" y1="462.166" x2="1275.93" y2="337.467" gradientUnits="userSpaceOnUse"><stop stop-color="#A4FFFF"/><stop offset="1" stop-color="#A4FFFF" stop-opacity="0"/></linearGradient><linearGradient id="paint44_linear" x1="1275.93" y1="430.961" x2="1275.93" y2="201.573" gradientUnits="userSpaceOnUse"><stop stop-color="#A4FFFF"/><stop offset="1" stop-color="#A4FFFF" stop-opacity="0"/></linearGradient><linearGradient id="paint45_linear" x1="1393.43" y1="328.841" x2="1393.43" y2="204.104" gradientUnits="userSpaceOnUse"><stop stop-color="#A4FFFF"/><stop offset="1" stop-color="#A4FFFF" stop-opacity="0"/></linearGradient><linearGradient id="paint46_linear" x1="1393.43" y1="297.647" x2="1393.43" y2="68.259" gradientUnits="userSpaceOnUse"><stop stop-color="#A4FFFF"/><stop offset="1" stop-color="#A4FFFF" stop-opacity="0"/></linearGradient><linearGradient id="paint47_linear" x1="1207.76" y1="529.758" x2="1207.76" y2="405.06" gradientUnits="userSpaceOnUse"><stop stop-color="#A4FFFF"/><stop offset="1" stop-color="#A4FFFF" stop-opacity="0"/></linearGradient><linearGradient id="paint48_linear" x1="1207.76" y1="498.554" x2="1207.76" y2="269.168" gradientUnits="userSpaceOnUse"><stop stop-color="#A4FFFF"/><stop offset="1" stop-color="#A4FFFF" stop-opacity="0"/></linearGradient><linearGradient id="paint49_linear" x1="1155.03" y1="447.719" x2="1155.03" y2="323.02" gradientUnits="userSpaceOnUse"><stop stop-color="#A4FFFF"/><stop offset="1" stop-color="#A4FFFF" stop-opacity="0"/></linearGradient><linearGradient id="paint50_linear" x1="1155.03" y1="447.058" x2="1155.03" y2="320.146" gradientUnits="userSpaceOnUse"><stop stop-color="#A4FFFF"/><stop offset="1" stop-color="#A4FFFF" stop-opacity="0"/></linearGradient><linearGradient id="paint51_linear" x1="1224.49" y1="262.61" x2="1224.49" y2="137.912" gradientUnits="userSpaceOnUse"><stop stop-color="#A4FFFF"/><stop offset="1" stop-color="#A4FFFF" stop-opacity="0"/></linearGradient><linearGradient id="paint52_linear" x1="1224.49" y1="272.385" x2="1224.49" y2="180.474" gradientUnits="userSpaceOnUse"><stop stop-color="#A4FFFF"/><stop offset="1" stop-color="#A4FFFF" stop-opacity="0"/></linearGradient><clipPath id="clip0"><path fill="#fff" transform="translate(-33)" d="M0 0h1537v572H0z"/></clipPath></defs></svg>